<?xml version="1.0" encoding="UTF-8"?>
<svg xmlns="http://www.w3.org/2000/svg" viewBox="0 0 30 30" width="30px" height="30px">
<g id="surface8903436">
<path style=" stroke:none;fill-rule:nonzero;fill:rgb(63.921571%,66.666669%,68.235296%);fill-opacity:1;" d="M 22.644531 14.992188 C 22.644531 11.324219 25.625 9.671875 25.75 9.59375 C 24.125 7.097656 21.503906 6.800781 20.523438 6.800781 C 18.246094 6.800781 16.234375 8.0625 15.15625 8.0625 C 14.035156 8.0625 12.394531 6.738281 10.554688 6.800781 C 8.152344 6.847656 5.953125 8.265625 4.722656 10.359375 C 3.847656 11.855469 3.503906 13.617188 3.535156 15.410156 C 3.539062 15.484375 3.546875 15.554688 3.546875 15.625 L 22.699219 15.625 C 22.675781 15.417969 22.652344 15.210938 22.644531 14.992188 Z M 22.644531 14.992188 "/>
<path style=" stroke:none;fill-rule:nonzero;fill:rgb(63.921571%,66.666669%,68.235296%);fill-opacity:1;" d="M 19.101562 4.414062 C 20.164062 3.246094 20.757812 1.636719 20.664062 0 C 19.195312 0 17.496094 0.859375 16.421875 2.121094 C 15.578125 3.167969 14.671875 4.804688 15 6.441406 C 16.515625 6.628906 18.152344 5.679688 19.101562 4.414062 Z M 19.101562 4.414062 "/>
<path style=" stroke:none;fill-rule:nonzero;fill:rgb(63.921571%,66.666669%,68.235296%);fill-opacity:1;" d="M 10.945312 28.125 C 12.675781 28.125 13.316406 26.96875 15.578125 26.96875 C 17.683594 26.96875 18.339844 28.125 20.164062 28.125 C 22.082031 28.125 23.347656 26.378906 24.484375 24.644531 C 25.917969 22.632812 26.402344 20.714844 26.464844 20.636719 C 26.40625 20.636719 23.160156 19.316406 22.699219 15.625 L 3.546875 15.625 C 3.648438 18.945312 4.941406 22.367188 6.46875 24.566406 C 7.667969 26.285156 9.027344 28.125 10.945312 28.125 Z M 10.945312 28.125 "/>
</g>
</svg>
