<svg id="Layer_1" data-name="Layer 1" xmlns="http://www.w3.org/2000/svg" width="750" height="120.23" viewBox="0 0 750 120.23"><defs><style>.cls-1{fill:#5f6368;}.cls-2{fill:#00832d;}.cls-3{fill:#0066da;}.cls-4{fill:#e94235;}.cls-5{fill:#2684fc;}.cls-6{fill:#00ac47;}.cls-7{fill:#ffba00;}</style></defs><title>google_meet_logo</title><path class="cls-1" d="M549.86,410.29H540.7V339.12h9.15l24.75,43.34h.4l24.75-43.34h9.14v71.17h-9.14V368l.4-11.93h-.4l-22.27,39.07h-5.37l-22.26-39.07h-.4l.4,11.93v42.25Zm92.42,1.59a23.36,23.36,0,0,1-17.7-7.36q-6.95-7.36-7-18.59t6.77-18.54a22.38,22.38,0,0,1,17.29-7.4q10.83,0,17.25,7t6.41,19.64l-.1,1H627a15.84,15.84,0,0,0,4.77,11.53,15.25,15.25,0,0,0,10.94,4.37q8.75,0,13.72-8.75l8.15,4a24.29,24.29,0,0,1-9.1,9.64A25.26,25.26,0,0,1,642.28,411.88Zm-14.62-31.81h27.93a12.13,12.13,0,0,0-4.13-8.4c-2.48-2.21-5.81-3.33-10-3.33a13.23,13.23,0,0,0-8.89,3.18A15.24,15.24,0,0,0,627.66,380.07ZM694,411.88a23.32,23.32,0,0,1-17.69-7.36q-7-7.36-7-18.59t6.76-18.54a22.41,22.41,0,0,1,17.3-7.4q10.83,0,17.24,7t6.41,19.64l-.1,1H678.73a15.81,15.81,0,0,0,4.78,11.53,15.24,15.24,0,0,0,10.93,4.37q8.76,0,13.72-8.75l8.15,4a24.23,24.23,0,0,1-9.1,9.64A25.23,25.23,0,0,1,694,411.88Zm-14.6-31.81h27.93a12.21,12.21,0,0,0-4.13-8.4c-2.49-2.21-5.82-3.33-10-3.33a13.26,13.26,0,0,0-8.89,3.18A15.12,15.12,0,0,0,679.44,380.07Zm62.21,31a13.86,13.86,0,0,1-9.89-3.68q-3.91-3.67-4-10.24V369.93h-8.54v-8.35h8.54V346.67h9.14v14.91H748.8v8.35H736.87v24.26c0,3.25.63,5.46,1.89,6.61a6.14,6.14,0,0,0,4.28,1.74,9.56,9.56,0,0,0,2.14-.25,10.52,10.52,0,0,0,1.94-.65l2.88,8.15A24.91,24.91,0,0,1,741.65,411.08Zm-509.14.77c-22.16,0-40.79-18.05-40.79-40.23s18.62-40.24,40.79-40.24a38.29,38.29,0,0,1,27.56,11.09l-7.75,7.74a28,28,0,0,0-19.81-7.85c-16.17,0-28.82,13.05-28.82,29.25a28.84,28.84,0,0,0,28.82,29.23c10.5,0,16.48-4.21,20.31-8,3.13-3.15,5.19-7.65,6-13.85H232.23V368h37.26a36.1,36.1,0,0,1,.58,6.87c0,8.24-2.26,18.45-9.51,25.71-7.06,7.36-16.08,11.28-28.05,11.28ZM325.87,386A26,26,0,0,1,274,386c0-15,11.66-25.91,26-25.91S325.87,370.94,325.87,386Zm-11.37,0c0-9.33-6.76-15.7-14.6-15.7s-14.59,6.37-14.59,15.7,6.76,15.69,14.59,15.69S314.5,395.17,314.5,386Zm67.86,0a26,26,0,0,1-51.91,0c0-15,11.66-25.91,25.95-25.91a25.53,25.53,0,0,1,26,25.91ZM371,386c0-9.33-6.77-15.7-14.6-15.7s-14.6,6.37-14.6,15.7,6.77,15.69,14.6,15.69S371,395.17,371,386Zm65.41-24.34v46.52c0,19.13-11.28,27-24.61,27a24.66,24.66,0,0,1-22.95-15.31l9.9-4.12c1.77,4.22,6.09,9.23,13.05,9.23,8.53,0,13.82-5.3,13.82-15.22V406h-.38c-2.55,3.14-7.46,5.89-13.64,5.89-12.94,0-24.81-11.28-24.81-25.82s11.87-26,24.81-26a17.93,17.93,0,0,1,13.64,5.79h.38v-4.23ZM426.4,386c0-9.13-6.08-15.79-13.83-15.79s-14.41,6.67-14.41,15.79,6.57,15.6,14.41,15.6S426.4,395.07,426.4,386ZM456,334.14v76.15H444.59V334.14Zm44.1,60.34,8.82,5.89a25.74,25.74,0,0,1-21.57,11.48c-14.71,0-25.7-11.38-25.7-25.9C461.61,370.54,472.7,360,486,360s20,10.69,22.16,16.48l1.18,2.94-34.62,14.33c2.65,5.2,6.77,7.85,12.56,7.85S497.12,398.8,500.06,394.48Zm-27.17-9.31L496,375.55c-1.28-3.24-5.1-5.5-9.61-5.5A14.21,14.21,0,0,0,472.89,385.17Z" transform="translate(0 -314.88)"/><path class="cls-2" d="M78,371.61,91.44,387l18.08,11.55,3.14-26.82-3.14-26.21L91.09,355.64Z" transform="translate(0 -314.88)"/><path class="cls-3" d="M0,396v22.85a9.46,9.46,0,0,0,9.45,9.45H32.31L37,411.07l-4.73-15-15.68-4.74Z" transform="translate(0 -314.88)"/><path class="cls-4" d="M32.31,314.88,0,347.19l16.63,4.72,15.68-4.72L37,332.35Z" transform="translate(0 -314.88)"/><path class="cls-5" d="M0,347.19H32.31V396H0Z" transform="translate(0 -314.88)"/><path class="cls-6" d="M130.15,328.56l-20.63,16.93v53l20.72,17a4.73,4.73,0,0,0,7.64-3.73V332.21A4.73,4.73,0,0,0,130.15,328.56Z" transform="translate(0 -314.88)"/><path class="cls-6" d="M78,371.61V396H32.31v32.3h67.75a9.46,9.46,0,0,0,9.46-9.45V398.52Z" transform="translate(0 -314.88)"/><path class="cls-7" d="M100.06,314.88H32.31v32.31H78v24.42l31.52-26.12V324.34A9.47,9.47,0,0,0,100.06,314.88Z" transform="translate(0 -314.88)"/></svg>